<?xml version="1.0" encoding="UTF-8" standalone="no"?>
<svg
   xmlns:dc="http://purl.org/dc/elements/1.1/"
   xmlns:cc="http://creativecommons.org/ns#"
   xmlns:rdf="http://www.w3.org/1999/02/22-rdf-syntax-ns#"
   xmlns:svg="http://www.w3.org/2000/svg"
   xmlns="http://www.w3.org/2000/svg"
   xmlns:xlink="http://www.w3.org/1999/xlink"
   xmlns:sodipodi="http://sodipodi.sourceforge.net/DTD/sodipodi-0.dtd"
   xmlns:inkscape="http://www.inkscape.org/namespaces/inkscape"
   version="1.1"
   preserveAspectRatio="xMidYMid meet"
   viewBox="93.659776 177.82138 111.09017 110.96533"
   width="400"
   height="400"
   id="svg87"
   sodipodi:docname="mocs-logo-icon.svg"
   inkscape:version="0.92.3 (2405546, 2018-03-11)">
  <metadata
     id="metadata91">
    <rdf:RDF>
      <cc:Work
         rdf:about="">
        <dc:format>image/svg+xml</dc:format>
        <dc:type
           rdf:resource="http://purl.org/dc/dcmitype/StillImage" />
        <dc:title></dc:title>
      </cc:Work>
    </rdf:RDF>
  </metadata>
  <sodipodi:namedview
     pagecolor="#ffffff"
     bordercolor="#666666"
     borderopacity="1"
     objecttolerance="10"
     gridtolerance="10"
     guidetolerance="10"
     inkscape:pageopacity="0"
     inkscape:pageshadow="2"
     inkscape:window-width="2560"
     inkscape:window-height="1346"
     id="namedview89"
     showgrid="false"
     inkscape:zoom="2.2861018"
     inkscape:cx="163.6047"
     inkscape:cy="189.42836"
     inkscape:window-x="-11"
     inkscape:window-y="-11"
     inkscape:window-maximized="1"
     inkscape:current-layer="svg87" />
  <defs
     id="defs11">
    <path
       d="m 194.05,249.75 c -0.67,-0.55 1.49,1.21 0.22,0.17 -1.16,-0.94 -0.54,-2.91 0.91,-2.91 1.35,0 0.63,0 1.91,0 2.66,0 4.77,-2.37 4.65,-5.21 -0.06,-1.31 0.05,1.04 0,0 -0.17,-3.67 -3,-6.56 -6.43,-6.56 -7.31,0 -24.05,0 -31.61,0 -1.5,0 -2.11,2.1 -0.87,3.01 5.73,4.22 20.7,15.24 26.89,19.81 1.07,0.78 2.45,0.93 3.64,0.39 1.46,-0.66 -0.68,0.3 -0.36,0.16 3.42,-1.54 3.99,-6.46 1.05,-8.86 z"
       id="aw5Sy7DPO"
       inkscape:connector-curvature="0" />
    <path
       d="m 164.72,281.13 c -0.51,-0.72 1.14,1.59 0.17,0.23 -0.88,-1.23 -2.72,-0.57 -2.72,0.98 0,1.45 0,0.68 0,2.05 0,2.84 -2.21,5.1 -4.87,4.97 -1.23,-0.06 0.97,0.05 0,0 -3.43,-0.18 -6.13,-3.21 -6.13,-6.88 0,-7.82 0,-25.74 0,-33.83 0,-1.61 1.96,-2.26 2.81,-0.93 3.94,6.13 14.24,22.15 18.51,28.78 0.73,1.15 0.87,2.62 0.37,3.9 -0.62,1.55 0.28,-0.73 0.15,-0.39 -1.44,3.65 -6.04,4.27 -8.29,1.12 z"
       id="aK5cQQXeT"
       inkscape:connector-curvature="0" />
    <path
       d="m 131.65,281.13 c 0.51,-0.72 -1.13,1.59 -0.16,0.23 0.87,-1.23 2.72,-0.57 2.72,0.98 0,1.45 0,0.68 0,2.05 0,2.84 2.21,5.1 4.86,4.97 1.23,-0.06 -0.97,0.05 0,0 3.43,-0.18 6.14,-3.21 6.14,-6.88 0,-7.82 0,-25.74 0,-33.83 0,-1.61 -1.96,-2.26 -2.81,-0.93 -3.94,6.13 -14.24,22.15 -18.51,28.78 -0.74,1.15 -0.87,2.62 -0.37,3.9 0.62,1.55 -0.28,-0.73 -0.15,-0.39 1.44,3.65 6.03,4.27 8.28,1.12 z"
       id="e1uqlbFdJ1"
       inkscape:connector-curvature="0" />
    <path
       d="m 194.05,216.7 c -0.67,0.55 1.49,-1.21 0.22,-0.18 -1.16,0.94 -0.54,2.91 0.91,2.91 1.35,0 0.63,0 1.91,0 2.66,0 4.77,2.38 4.65,5.22 -0.06,1.31 0.05,-1.04 0,0 -0.17,3.67 -3,6.56 -6.43,6.56 -7.31,0 -24.05,0 -31.61,0 -1.5,0 -2.11,-2.1 -0.87,-3.01 5.73,-4.22 20.7,-15.24 26.89,-19.81 1.07,-0.78 2.45,-0.93 3.64,-0.39 1.46,0.66 -0.68,-0.31 -0.36,-0.16 3.42,1.54 3.99,6.45 1.05,8.86 z"
       id="bHgksbuCM"
       inkscape:connector-curvature="0" />
    <path
       d="m 164.72,187.07 c -0.51,0.71 1.14,-1.6 0.17,-0.24 -0.88,1.24 -2.72,0.58 -2.72,-0.97 0,-1.45 0,-0.68 0,-2.05 0,-2.84 -2.21,-5.11 -4.87,-4.97 -1.23,0.06 0.97,-0.06 0,0 -3.43,0.18 -6.13,3.2 -6.13,6.87 0,7.83 0,25.75 0,33.83 0,1.61 1.96,2.27 2.81,0.93 3.94,-6.12 14.24,-22.15 18.51,-28.78 0.73,-1.14 0.87,-2.61 0.37,-3.89 -0.62,-1.56 0.28,0.72 0.15,0.38 -1.44,-3.65 -6.04,-4.27 -8.29,-1.11 z"
       id="dkyWVJzHi"
       inkscape:connector-curvature="0" />
    <path
       d="m 131.65,187.19 c 0.51,0.71 -1.13,-1.6 -0.16,-0.24 0.87,1.24 2.72,0.58 2.72,-0.97 0,-1.45 0,-0.68 0,-2.05 0,-2.84 2.21,-5.11 4.86,-4.97 1.23,0.06 -0.97,-0.06 0,0 3.43,0.18 6.14,3.2 6.14,6.87 0,7.83 0,25.75 0,33.83 0,1.62 -1.96,2.27 -2.81,0.94 -3.94,-6.13 -14.24,-22.16 -18.51,-28.78 -0.74,-1.15 -0.87,-2.62 -0.37,-3.9 0.62,-1.56 -0.28,0.73 -0.15,0.39 1.44,-3.66 6.03,-4.27 8.28,-1.12 z"
       id="f1u0VfGgrK"
       inkscape:connector-curvature="0" />
    <path
       d="m 102.33,216.7 c 0.67,0.55 -1.49,-1.21 -0.21,-0.18 1.14,0.94 0.53,2.91 -0.92,2.91 -1.36,0 -0.64,0 -1.91,0 -2.65,0 -4.76,2.39 -4.62,5.22 0.07,1.3 -0.05,-1.05 0,0 0.19,3.68 3.03,6.55 6.47,6.55 7.3,0 24,0.01 31.53,0.01 1.52,0 2.12,-2.1 0.87,-3.01 -5.72,-4.22 -20.69,-15.24 -26.89,-19.81 -1.07,-0.78 -2.43,-0.93 -3.63,-0.39 -1.46,0.66 0.67,-0.31 0.36,-0.16 -3.41,1.54 -4,6.45 -1.05,8.86 z"
       id="bkg56f7C"
       inkscape:connector-curvature="0" />
    <path
       d="m 102.33,249.75 c 0.67,-0.55 -1.49,1.21 -0.21,0.17 1.14,-0.94 0.53,-2.91 -0.92,-2.91 -1.36,0 -0.64,0 -1.91,0 -2.65,0 -4.76,-2.38 -4.62,-5.21 0.07,-1.3 -0.05,1.05 0,0 0.19,-3.68 3.03,-6.55 6.47,-6.55 7.3,0 24,-0.01 31.53,-0.01 1.52,0 2.12,2.1 0.87,3.01 -5.72,4.22 -20.69,15.24 -26.89,19.81 -1.07,0.78 -2.43,0.93 -3.63,0.39 -1.46,-0.66 0.67,0.3 0.36,0.16 -3.41,-1.54 -4,-6.46 -1.05,-8.86 z"
       id="deMKDU6xx"
       inkscape:connector-curvature="0" />
    <path
       d="m 148.25,244.81 c -5.79,0 -10.49,-4.85 -10.49,-10.82 0,-5.97 4.7,-10.82 10.49,-10.82 5.78,0 10.48,4.85 10.48,10.82 0,5.97 -4.7,10.82 -10.48,10.82 z"
       id="a8hAVzzNY7"
       inkscape:connector-curvature="0" />
  </defs>
  <g
     id="g85"
     transform="translate(1.0589311,-0.74421961)">
    <g
       id="g19">
      <use
         xlink:href="#aw5Sy7DPO"
         id="use13"
         style="opacity:1;fill:#a1917c;fill-opacity:1"
         x="0"
         y="0"
         width="100%"
         height="100%" />
      <g
         id="g17">
        <use
           xlink:href="#aw5Sy7DPO"
           id="use15"
           style="opacity:1;fill-opacity:0;stroke:#000000;stroke-width:1;stroke-opacity:0"
           x="0"
           y="0"
           width="100%"
           height="100%" />
      </g>
    </g>
    <g
       id="g27">
      <use
         xlink:href="#aK5cQQXeT"
         id="use21"
         style="opacity:1;fill:#a1917c;fill-opacity:1"
         x="0"
         y="0"
         width="100%"
         height="100%" />
      <g
         id="g25">
        <use
           xlink:href="#aK5cQQXeT"
           id="use23"
           style="opacity:1;fill-opacity:0;stroke:#000000;stroke-width:1;stroke-opacity:0"
           x="0"
           y="0"
           width="100%"
           height="100%" />
      </g>
    </g>
    <g
       id="g35">
      <use
         xlink:href="#e1uqlbFdJ1"
         id="use29"
         style="opacity:1;fill:#a1917c;fill-opacity:1"
         x="0"
         y="0"
         width="100%"
         height="100%" />
      <g
         id="g33">
        <use
           xlink:href="#e1uqlbFdJ1"
           id="use31"
           style="opacity:1;fill-opacity:0;stroke:#000000;stroke-width:1;stroke-opacity:0"
           x="0"
           y="0"
           width="100%"
           height="100%" />
      </g>
    </g>
    <g
       id="g43">
      <use
         xlink:href="#bHgksbuCM"
         id="use37"
         style="opacity:1;fill:#a1917c;fill-opacity:1"
         x="0"
         y="0"
         width="100%"
         height="100%" />
      <g
         id="g41">
        <use
           xlink:href="#bHgksbuCM"
           id="use39"
           style="opacity:1;fill-opacity:0;stroke:#000000;stroke-width:1;stroke-opacity:0"
           x="0"
           y="0"
           width="100%"
           height="100%" />
      </g>
    </g>
    <g
       id="g51">
      <use
         xlink:href="#dkyWVJzHi"
         id="use45"
         style="opacity:1;fill:#a1917c;fill-opacity:1"
         x="0"
         y="0"
         width="100%"
         height="100%" />
      <g
         id="g49">
        <use
           xlink:href="#dkyWVJzHi"
           id="use47"
           style="opacity:1;fill-opacity:0;stroke:#000000;stroke-width:1;stroke-opacity:0"
           x="0"
           y="0"
           width="100%"
           height="100%" />
      </g>
    </g>
    <g
       id="g59">
      <use
         xlink:href="#f1u0VfGgrK"
         id="use53"
         style="opacity:1;fill:#a1917c;fill-opacity:1"
         x="0"
         y="0"
         width="100%"
         height="100%" />
      <g
         id="g57">
        <use
           xlink:href="#f1u0VfGgrK"
           id="use55"
           style="opacity:1;fill-opacity:0;stroke:#000000;stroke-width:1;stroke-opacity:0"
           x="0"
           y="0"
           width="100%"
           height="100%" />
      </g>
    </g>
    <g
       id="g67">
      <use
         xlink:href="#bkg56f7C"
         id="use61"
         style="opacity:1;fill:#a1917c;fill-opacity:1"
         x="0"
         y="0"
         width="100%"
         height="100%" />
      <g
         id="g65">
        <use
           xlink:href="#bkg56f7C"
           id="use63"
           style="opacity:1;fill-opacity:0;stroke:#000000;stroke-width:1;stroke-opacity:0"
           x="0"
           y="0"
           width="100%"
           height="100%" />
      </g>
    </g>
    <g
       id="g75">
      <use
         xlink:href="#deMKDU6xx"
         id="use69"
         style="opacity:1;fill:#a1917c;fill-opacity:1"
         x="0"
         y="0"
         width="100%"
         height="100%" />
      <g
         id="g73">
        <use
           xlink:href="#deMKDU6xx"
           id="use71"
           style="opacity:1;fill-opacity:0;stroke:#000000;stroke-width:1;stroke-opacity:0"
           x="0"
           y="0"
           width="100%"
           height="100%" />
      </g>
    </g>
    <g
       id="g83">
      <use
         xlink:href="#a8hAVzzNY7"
         id="use77"
         style="opacity:1;fill:#a1917c;fill-opacity:1"
         x="0"
         y="0"
         width="100%"
         height="100%" />
      <g
         id="g81">
        <use
           xlink:href="#a8hAVzzNY7"
           id="use79"
           style="opacity:1;fill-opacity:0;stroke:#000000;stroke-width:1;stroke-opacity:0"
           x="0"
           y="0"
           width="100%"
           height="100%" />
      </g>
    </g>
  </g>
</svg>
