<svg version="1" xmlns="http://www.w3.org/2000/svg" width="933.333" height="933.333" viewBox="0 0 700.000000 700.000000"><path d="M402.4 2.9c-14.1 2.4-26.7 14.5-31.5 30.3-1.8 5.9-1.9 11.4-1.9 116.9 0 78.4.3 111.5 1.1 113.2 2.5 5.5 11.4 7.2 15.2 2.9.8-.9 20-30.5 42.6-65.7s41.5-64.7 42.1-65.5c.6-.8 5.3-8.1 10.4-16.2 16.1-25 18.8-29.2 21.4-33.1 8.3-12.3 7.1-27.2-3-36.3-6.2-5.5-12.1-7.8-20.3-7.9-8.5 0-14.8 2.7-21.3 9.3-2.4 2.4-5.5 4.7-6.8 5.2-3.2 1.2-8.8-1-10.4-4-.7-1.3-1.4-7.2-1.6-13.3-.5-13.1-2.1-18.9-7.3-25.5-6.7-8.4-17.3-12.2-28.7-10.3zM282.7 4.4c-11 4.1-18.6 13.7-20 25.6-.3 2.5-.6 8.2-.6 12.8-.1 7.9-.3 8.5-3 11.3-4.6 4.6-8.6 4-15.2-2.1-8-7.4-12.8-9.5-21.9-9.5-9 0-14.9 2.4-20.7 8.2-5.2 5.2-7.6 10.6-7.9 17.8-.4 9.4-.6 9 40.1 72 2.8 4.4 19.5 30.3 37 57.5 41.8 65 43.9 68.3 45.8 69.8 3.8 3.2 11.4 1.5 13.9-3.1.9-1.7 1.2-26.4 1.3-110.7 0-59.7-.3-111.1-.7-114.3-1-7.4-4.2-15-8.7-20.7-5.2-6.5-7.8-8.6-14.9-12.1-7.6-3.7-18.4-4.8-24.5-2.5zM66.5 185.9c-4.8 2.1-10.8 8.2-13.1 13-6.4 13.5-4.6 28.2 4.8 38.7 1.9 2.2 4 4.8 4.5 5.9 1.6 3.1.5 8.7-2.2 11.5-2.3 2.3-3.5 2.5-14.3 3-10.5.5-12.3.9-17.1 3.5-15.7 8.6-20.3 28.3-11.1 47.2 6.2 12.5 16.5 20.2 30.5 22.7 1.7.3 48.9.6 104.9.6 98.7.1 102.1 0 104.5-1.8 3.1-2.3 4.9-8.2 3.5-11.9-1.1-3.1-4.5-5.9-29.5-24.4C128.3 217.5 87.3 187.6 83.7 186c-5.3-2.5-12-2.5-17.2-.1zM618.9 185c-3.1.9-6 2.7-15.9 9.9-10 7.3-37.4 27.6-42.6 31.5-2.3 1.7-5.2 3.8-6.4 4.6-1.2.8-3.1 2.3-4.3 3.2-1.2.9-6.7 5-12.2 9-9.3 6.9-41.6 30.7-60.1 44.3-4.5 3.3-14.6 10.7-22.4 16.5-14.7 10.8-17.3 13.7-16.3 19 .6 3.3 2.8 6.7 5.3 8 1.5.8 32.3 1.1 104.3 1.1 56.2 0 103.1-.2 104.2-.5 6.2-1.4 8.4-2.1 12-3.9 13.2-6.6 22.2-21.1 22.9-36.7.6-13.4-6.1-24.9-17.3-30.1-5.6-2.6-6.7-2.8-17-3-4.7-.1-9.6-.6-10.9-1.2-2.8-1.3-5.2-5.6-5.2-9.2 0-2.6 2.8-8.5 4-8.5.4 0 2-1.9 3.7-4.3 6-8.4 7.7-18.8 4.9-29.2-1.7-6.7-3.2-9.1-8.8-14.7-6.2-6.2-13.9-8.3-21.9-5.8zM342 282.1c-9.5 1.6-11.7 2.3-19.6 6-18.2 8.7-32.8 28-36.4 48.1-5.3 28.9 7 57.3 31.2 71.9 9.7 5.9 19.5 9 30 9.4 33.6 1.3 61.8-21.5 68.2-55.2 1.3-6.7 1.4-19.8.2-25.2-5.4-24.6-20.1-42.5-41.7-51-10.3-4-22.3-5.5-31.9-4zM49 358.1c-19.5 2.8-33.7 18.5-35.7 39.4-1.3 14.1 7.6 28.5 20 32.5 2.1.6 8.3 1.4 13.8 1.6 6.8.2 10.6.8 12.3 1.9 2.4 1.6 4.3 5.6 4.1 8.5-.1.8-.3 2.2-.3 3-.1.8-1.4 2.8-2.8 4.5-9.8 11.3-12.7 20.8-9.9 33.6 2.4 11.3 12.5 21.4 22.1 22.4 8.2.7 11.9-1.1 31.4-15.6 6.3-4.7 16-11.8 21.5-15.8 5.5-4.1 12.9-9.5 16.5-12.2 3.6-2.6 13.3-9.7 21.5-15.8 8.3-6.1 15.5-11.4 16-11.8.6-.5 8.7-6.4 18-13.2 9.4-6.9 18.2-13.4 19.6-14.5 1.5-1.2 3.7-2.9 5-3.8 12.5-8.8 33.1-24.3 36.2-27.2 3.1-3 3.7-4.3 3.7-7.7 0-3.1-.6-4.7-2.9-7-1.6-1.6-3.5-3-4.3-3-5.2-.5-202.2-.3-205.8.2zM446.1 358.1c-3.6.7-7 4.2-7.3 7.3-.5 7.5.3 8.6 16.5 20.4 6.5 4.8 13.7 10.1 16 11.8 2.3 1.7 12.3 9.1 22.2 16.4 9.9 7.3 20.3 15 23 17 2.8 2 16.3 12 30 22.1 13.8 10.1 25.5 18.7 26 19.2 2 1.6 33.4 24.6 38.2 28 14 9.8 29.5 5.2 37.2-11.2 2.2-4.7 2.6-7 2.6-14.6 0-10.6-1.9-15.7-8.5-22.9-6.4-6.9-6.6-14.2-.5-18.2 1.6-1.1 5.4-1.6 12.7-1.8 7.7-.2 11.5-.8 14.8-2.3 17.6-7.8 23.4-27.9 14-48.1-5.1-11-16.4-20.1-28-22.8-4.1-.9-204.4-1.2-208.9-.3zM315.5 434.6c-1.9 2-19.5 28.6-24 36.2-.6.9-2.8 4.4-5 7.7-2.1 3.3-16 24.9-30.8 48s-28.4 44.2-30.2 47c-33.5 51.7-31.9 48.8-32 58.5 0 6.4.4 8.2 2.7 12 10.4 17.7 32.9 20.4 47.2 5.8 5.6-5.7 9.3-6.7 14.2-4 3.2 1.7 4.2 5.6 4.8 18.3.4 9.9.8 12.4 3 16.6 5.1 10.1 11.7 15.4 21.4 17.1 18.6 3.3 37.9-11.1 43.3-32.4 1.9-7.3 2-223.5.1-228-2.4-5.7-10.5-7.3-14.7-2.8zM373.7 433.1c-4.9 2.8-4.7-1-4.7 116.6.1 64.8.5 111.8 1 114.7 1.5 7.3 5.3 14.7 10.9 20.8 16.1 17.6 41.2 17.2 52.3-.8 3.8-6.2 5-11.4 5.2-22.6.2-8 .6-11.2 1.9-13.1 4-6.1 10-5.9 16.5.7 8 8.1 18.4 11.4 29 9.2 4.4-.9 12.1-5.9 15.2-9.7 9.2-11.4 8.5-22.2-2.3-38.8-9.1-13.9-38.2-59.2-39.2-60.8-1-1.8-4.7-7.5-13-20.3-2.4-3.6-16.2-25.2-30.8-48-14.6-22.8-28.1-43.2-30-45.3-2.7-2.9-4.2-3.7-6.8-3.7-1.9 0-4.2.5-5.2 1.1z"/></svg>